<svg xmlns="http://www.w3.org/2000/svg" viewBox="0 0 422.87 423.77"><defs><style>.cls-1{opacity:0.15;}.cls-2{fill:#fff;}</style></defs><g id="Layer_2" data-name="Layer 2"><g id="Layer_1-2" data-name="Layer 1"><g class="cls-1"><path class="cls-2" d="M6.37,423.77c28-22.24,211.82-228.38,416.5-224.21v-98.9s-42.52,39.21-75.54,14.44C304.62,74.86,422.87,0,422.87,0H274C189.91,99.73,101.55,238.8,0,254.86V423.77Z"/><path class="cls-2" d="M0,144.07c110.06.2,102.09-93.9,162.32-144.07H109.17C72.34,10.63,75.2,53.5,0,63.46Z"/><path class="cls-2" d="M175.61,423.77C258.87,310.91,323.83,367.6,422.87,292v51.23c-60.21,49.76-92.55,34.38-142.44,80.53Z"/><path class="cls-2" d="M354.46,423.77c23.39-22.35,45.75-33.22,68.41-40.28v40.28Z"/></g></g></g></svg>